<?xml version="1.0" standalone="no"?>
<!DOCTYPE svg PUBLIC "-//W3C//DTD SVG 20010904//EN"
 "http://www.w3.org/TR/2001/REC-SVG-20010904/DTD/svg10.dtd">
<svg version="1.0" xmlns="http://www.w3.org/2000/svg"
 width="32.000000pt" height="32.000000pt" viewBox="0 0 32.000000 32.000000"
 preserveAspectRatio="xMidYMid meet">

<g transform="translate(0.000000,32.000000) scale(0.100000,-0.100000)"
fill="#000000" stroke="none">
<path d="M82 290 c-33 -20 -62 -72 -62 -110 0 -26 4 -25 48 7 20 15 38 28 40
29 1 1 -2 12 -7 26 -25 66 65 74 132 10 15 -14 27 -21 27 -16 0 6 -13 23 -29
38 -40 38 -103 45 -149 16z"/>
<path d="M113 195 c-33 -15 -60 -36 -73 -57 -26 -42 -25 -46 5 -54 13 -3 27
-14 30 -25 8 -24 53 -59 76 -59 11 0 28 9 39 20 l20 20 -20 0 c-34 0 -72 45
-68 82 3 27 8 33 36 39 29 6 32 4 32 -17 0 -14 6 -24 14 -24 9 0 12 9 9 28 -4
25 -3 25 10 10 18 -23 30 -23 50 0 23 25 21 37 -8 50 -40 19 -95 14 -152 -13z"/>
<path d="M190 80 c0 -5 5 -10 10 -10 6 0 10 5 10 10 0 6 -4 10 -10 10 -5 0
-10 -4 -10 -10z"/>
</g>
</svg>
